<svg xmlns="http://www.w3.org/2000/svg" viewBox="0 0 448 512"><!--! Font Awesome Pro 6.0.0 by @fontawesome - https://fontawesome.com License - https://fontawesome.com/license (Commercial License) Copyright 2022 Fonticons, Inc. --><path fill="#a6b1e1" d="M 246.6 233.4 l -160 -160 c -12.5 -12.5 -32.8 -12.5 -45.3 0 s -12.5 32.8 0 45.3 L 178.8 256 l -137.4 137.4 c -12.5 12.5 -12.5 32.8 0 45.3 C 47.6 444.9 55.8 448 64 448 s 16.4 -3.1 22.6 -9.4 l 160 -160 C 259.1 266.1 259.1 245.9 246.6 233.4 z M 438.6 233.4 l -160 -160 c -12.5 -12.5 -32.8 -12.5 -45.3 0 s -12.5 32.8 0 45.3 L 370.8 256 l -137.4 137.4 c -12.5 12.5 -12.5 32.8 0 45.3 C 239.6 444.9 247.8 448 256 448 s 16.4 -3.1 22.6 -9.4 l 160 -160 C 451.1 266.1 451.1 245.9 438.6 233.4 z"/></svg>