<svg xmlns="http://www.w3.org/2000/svg" viewBox="0 0 448 512"><!--! Font Awesome Pro 6.0.0 by @fontawesome - https://fontawesome.com License - https://fontawesome.com/license (Commercial License) Copyright 2022 Fonticons, Inc. --><path fill="#d6e5e3" d="M 176 448 C 167.3 448 160 455.3 160 464 V 512 h 32 v -48 C 192 455.3 184.8 448 176 448 z M 272 448 c -8.8 0 -16 7.3 -16 16 s 7.3 16 16 16 s 16 -7.3 16 -16 S 280.8 448 272 448 z M 164 172 l 8.2 24.6 c 1.2 3.6 6.4 3.6 7.6 0 L 188 172 l 24.6 -8.2 c 3.6 -1.2 3.6 -6.4 0 -7.6 L 188 148 L 179.8 123.4 c -1.2 -3.6 -6.4 -3.6 -7.6 0 L 164 148 L 139.4 156.2 c -3.6 1.2 -3.6 6.4 0 7.6 L 164 172 z M 336.1 315.4 C 304 338.6 265.1 352 224 352 s -80 -13.4 -112.1 -36.6 C 46.5 340.2 0 403.3 0 477.3 C 0 496.5 15.5 512 34.7 512 H 128 v -64 c 0 -17.8 14.3 -32 32 -32 h 128 c 17.8 0 32 14.3 32 32 v 64 h 93.3 C 432.5 512 448 496.5 448 477.3 C 448 403.3 401.5 340.2 336.1 315.4 z M 64 224 h 13.5 C 102.3 280.5 158.4 320 224 320 s 121.8 -39.5 146.5 -96 H 384 c 8.8 0 16 -7.3 16 -16 v -96 C 400 103.3 392.8 96 384 96 h -13.5 C 345.8 39.5 289.6 0 224 0 S 102.3 39.5 77.5 96 H 64 C 55.3 96 48 103.3 48 112 v 96 C 48 216.8 55.3 224 64 224 z M 104 136 C 104 113.9 125.5 96 152 96 h 144 c 26.5 0 48 17.9 48 40 V 160 c 0 53 -43 96 -96 96 h -48 c -53 0 -96 -43 -96 -96 V 136 z"/></svg>