<svg xmlns="http://www.w3.org/2000/svg" viewBox="0 0 480 512"><!--! Font Awesome Pro 6.0.0 by @fontawesome - https://fontawesome.com License - https://fontawesome.com/license (Commercial License) Copyright 2022 Fonticons, Inc. --><path fill="rgb(41, 41, 41)" d="M 217.1 365.7 c 0 20.9 -10.9 55.1 -36.7 55.1 s -36.7 -34.2 -36.7 -55.1 s 10.9 -55.1 36.7 -55.1 s 36.7 34.2 36.7 55.1 z M 511 315.2 c 0 31.9 -3.2 65.7 -17.5 95 c -37.9 76.6 -142.1 74.8 -216.7 74.8 c -75.8 0 -186.2 2.7 -225.6 -74.8 c -14.6 -29 -20.2 -63.1 -20.2 -95 c 0 -41.9 13.9 -81.5 41.5 -113.6 c -5.2 -15.8 -7.7 -32.4 -7.7 -48.8 c 0 -21.5 4.9 -32.3 14.6 -51.8 c 45.3 0 74.3 9 108.8 36 c 29 -6.9 58.8 -10 88.7 -10 c 27 0 54.2 2.9 80.4 9.2 c 34 -26.7 63 -35.2 107.8 -35.2 c 9.8 19.5 14.6 30.3 14.6 51.8 c 0 16.4 -2.6 32.7 -7.7 48.2 c 27.5 32.4 39 72.3 39 114.2 z m -64.3 50.5 c 0 -43.9 -26.7 -82.6 -73.5 -82.6 c -18.9 0 -37 3.4 -56 6 c -14.9 2.3 -29.8 3.2 -45.1 3.2 c -15.2 0 -30.1 -0.9 -45.1 -3.2 c -18.7 -2.6 -37 -6 -56 -6 c -46.8 0 -73.5 38.7 -73.5 82.6 c 0 87.8 80.4 101.3 150.4 101.3 h 48.2 c 70.3 0 150.6 -13.4 150.6 -101.3 z m -82.6 -55.1 c -25.8 0 -36.7 34.2 -36.7 55.1 s 10.9 55.1 36.7 55.1 s 36.7 -34.2 36.7 -55.1 s -10.9 -55.1 -36.7 -55.1 z"/></svg>