<svg xmlns="http://www.w3.org/2000/svg" viewBox="0 0 448 512"><!--! Font Awesome Pro 6.0.0 by @fontawesome - https://fontawesome.com License - https://fontawesome.com/license (Commercial License) Copyright 2022 Fonticons, Inc. --><path fill="#d6e5e3" d="M 448 336 v -288 C 448 21.5 426.5 0 400 0 H 96 C 43 0 0 43 0 96 v 320 c 0 53 43 96 96 96 h 320 c 17.7 0 32 -14.3 32 -31.1 c 0 -11.7 -6.6 -21.5 -16 -27.1 v -81.4 C 441.8 362.8 448 350.2 448 336 z M 133.1 160.4 l 21.3 21.3 c 3.1 3.1 8.1 3.1 11.3 0 s 3.1 -8.1 0 -11.3 l -26.4 -26.5 c 10 -20.8 26.3 -38 46.4 -49.3 c -17 27.1 -11 62.8 14 82.6 C 185.5 192 180.5 213.1 186.5 232.5 c 5.9 19.4 22 34.1 41.9 38.3 l 1.4 -32.8 L 219.4 245.1 C 218.8 245.5 217.9 245.8 217.1 245.8 c -1 0 -2 -0.4 -2.8 -1 c -0.8 -0.9 -1.3 -1.9 -1.3 -3 c 0 -0.6 0.3 -1.4 0.5 -2 L 222.3 225.5 l -18 -3.8 c -1.8 -0.4 -3.1 -2.1 -3.1 -4 s 1.4 -3.5 3.1 -3.9 l 18 -3.8 L 213.6 195.9 C 212.8 194.3 213 192.1 214.4 190.9 s 3.5 -1.5 5 -0.4 l 12 8.1 L 236 87.9 C 236.1 85.6 237.9 84 240 84 s 3.9 1.6 4 3.9 l 4.8 112.3 l 14.1 -9.6 c 0.6 -0.5 1.5 -0.6 2.3 -0.8 c 1.5 0 2.8 0.8 3.5 2 s 0.6 2.9 -0.1 4.1 L 260 210.1 l 17.1 3.8 c 1.8 0.4 3.1 2 3.1 3.9 s -1.4 3.6 -3.1 4 L 260 225.4 l 8.5 14.4 c 0.8 1.3 0.9 2.8 0.1 4 s -2 2 -3.5 2 c -0.8 0 -1.6 -0.3 -2.3 -0.6 L 250.3 236.5 l 1.4 34.3 c 19.9 -4.1 36 -18.9 41.9 -38.3 c 6 -19.4 1 -40.6 -13.1 -55.3 c 25 -19.9 31 -55.5 14 -82.6 c 20.3 11.3 36.4 28.5 46.4 49.3 l -26.4 26.5 c -3.1 3.1 -3.1 8.1 0 11.3 s 8.1 3.1 11.3 0 l 21.3 -21.3 C 349.9 170.5 352 181 352 192 c 0 0.5 -0.1 1 -0.1 1.5 l -37.1 32.5 C 313.1 227.6 312.1 229.8 312 232 c 0.1 1.9 0.7 3.8 1.1 5.3 C 315.6 238.9 317.8 239.9 320 240 c 1.1 0 3.9 -0.7 5.3 -1.1 l 23.6 -20.6 C 337.3 267 293.1 304 240 304 S 142.8 267 131.1 217.4 l 23.6 20.6 C 156.3 239.3 158.1 239.9 160 240 c 3.4 0 6.3 -2.1 7.5 -5.1 c 1.1 -3.1 0.3 -6.8 -2.3 -8.9 L 128.1 193.5 C 128.1 193 128 192.5 128 192 C 128 181 130.1 170.5 133.1 160.4 z M 384 448 H 96 c -17.7 0 -32 -14.3 -32 -32 s 14.3 -32 32 -32 h 288 V 448 z"/></svg>