<svg width="200" height="200" viewBox="0 0 200 200" fill="none" xmlns="http://www.w3.org/2000/svg">
<rect x="6.5" y="6.5" width="187" height="187" fill="black" stroke="white" stroke-width="13"/>
<path d="M17.9375 88V26.9091H61.9659V40.2727H34.5227V50.7727H59.6989V64.1364H34.5227V74.6364H61.8466V88H17.9375ZM105.665 47.0739C105.406 46.0199 104.999 45.0952 104.442 44.2997C103.885 43.4844 103.189 42.7983 102.354 42.2415C101.538 41.6648 100.584 41.2372 99.49 40.9588C98.4161 40.6605 97.2329 40.5114 95.9403 40.5114C93.1562 40.5114 90.7798 41.1776 88.811 42.5099C86.8621 43.8423 85.3707 45.7614 84.3366 48.267C83.3224 50.7727 82.8153 53.7955 82.8153 57.3352C82.8153 60.9148 83.3025 63.9773 84.2769 66.5227C85.2513 69.0682 86.7031 71.017 88.632 72.3693C90.561 73.7216 92.9573 74.3977 95.821 74.3977C98.3465 74.3977 100.445 74.0298 102.115 73.294C103.805 72.5582 105.068 71.5142 105.903 70.1619C106.739 68.8097 107.156 67.2187 107.156 65.3892L110.02 65.6875H96.0596V53.875H123.145V62.3466C123.145 67.9148 121.962 72.6776 119.595 76.6349C117.249 80.5724 114.007 83.5952 109.871 85.7031C105.754 87.7912 101.031 88.8352 95.7016 88.8352C89.7556 88.8352 84.5354 87.5724 80.0411 85.0469C75.5468 82.5213 72.0369 78.9219 69.5113 74.2486C67.0056 69.5753 65.7528 64.017 65.7528 57.5739C65.7528 52.5227 66.5184 48.0483 68.0496 44.1506C69.6008 40.2528 71.7485 36.9616 74.4928 34.277C77.2371 31.5724 80.409 29.5341 84.0085 28.1619C87.6079 26.7699 91.4658 26.0739 95.5823 26.0739C99.2016 26.0739 102.562 26.5909 105.665 27.625C108.787 28.6392 111.541 30.0909 113.927 31.9801C116.334 33.8494 118.273 36.0668 119.744 38.6321C121.216 41.1974 122.111 44.0114 122.429 47.0739H105.665ZM126.678 88V26.9091H143.263V50.7727H165.218V26.9091H181.803V88H165.218V64.1364H143.263V88H126.678ZM74.9716 134.818H58.1477C58.0284 133.426 57.7102 132.163 57.1932 131.03C56.696 129.896 56 128.922 55.1051 128.107C54.2301 127.271 53.1662 126.635 51.9134 126.197C50.6605 125.74 49.2386 125.511 47.6477 125.511C44.8636 125.511 42.5071 126.187 40.5781 127.54C38.669 128.892 37.2173 130.831 36.223 133.357C35.2486 135.882 34.7614 138.915 34.7614 142.455C34.7614 146.193 35.2585 149.325 36.2528 151.851C37.267 154.357 38.7287 156.246 40.6378 157.518C42.5469 158.771 44.8438 159.398 47.5284 159.398C49.0597 159.398 50.4318 159.209 51.6449 158.831C52.858 158.433 53.9119 157.866 54.8068 157.131C55.7017 156.395 56.4276 155.51 56.9844 154.476C57.5611 153.422 57.9489 152.239 58.1477 150.926L74.9716 151.045C74.7727 153.631 74.0469 156.266 72.794 158.95C71.5412 161.615 69.7614 164.081 67.4545 166.348C65.1676 168.595 62.3338 170.405 58.9531 171.777C55.5724 173.149 51.6449 173.835 47.1705 173.835C41.5625 173.835 36.5312 172.632 32.0767 170.226C27.642 167.82 24.1321 164.28 21.5469 159.607C18.9815 154.933 17.6989 149.216 17.6989 142.455C17.6989 135.653 19.0114 129.926 21.6364 125.273C24.2614 120.599 27.8011 117.07 32.2557 114.683C36.7102 112.277 41.6818 111.074 47.1705 111.074C51.0284 111.074 54.5781 111.601 57.8196 112.655C61.0611 113.709 63.9048 115.25 66.3509 117.278C68.7969 119.287 70.7656 121.763 72.2571 124.706C73.7486 127.649 74.6534 131.02 74.9716 134.818ZM95.0006 147.227V173H78.5347V111.909H94.404V135.892H94.8813C95.9154 132.969 97.6356 130.692 100.042 129.061C102.448 127.411 105.342 126.585 108.722 126.585C111.964 126.585 114.778 127.321 117.164 128.793C119.57 130.264 121.43 132.293 122.742 134.878C124.075 137.463 124.731 140.426 124.711 143.767V173H108.245V147.227C108.265 144.96 107.698 143.18 106.545 141.888C105.411 140.595 103.79 139.949 101.682 139.949C100.35 139.949 99.1768 140.247 98.1626 140.844C97.1683 141.42 96.3927 142.256 95.8359 143.349C95.2989 144.423 95.0205 145.716 95.0006 147.227Z" fill="white"/>
</svg>
